<svg width="645" height="402" viewBox="0 0 645 402" fill="none" xmlns="http://www.w3.org/2000/svg">
<path d="M578.903 78.5411H446.708V319.982H578.903V78.5411Z" fill="#E6E6E6"/>
<path d="M459.056 307.619H566.555V90.904H459.056V307.619Z" fill="white"/>
<path d="M531.756 137.385H500.361V140.304H531.756V137.385Z" fill="#E6E6E6"/>
<path d="M555.08 147.483H500.361V150.402H555.08V147.483Z" fill="#E6E6E6"/>
<path d="M555.026 157.581H500.361V160.5H555.026V157.581Z" fill="#E6E6E6"/>
<path d="M493.855 137.428H470.531V160.78H493.855V137.428Z" fill="#E6E6E6"/>
<path d="M531.756 187.564H500.361V190.483H531.756V187.564Z" fill="#E6E6E6"/>
<path d="M555.08 197.662H500.361V200.581H555.08V197.662Z" fill="#E6E6E6"/>
<path d="M555.026 207.76H500.361V210.679H555.026V207.76Z" fill="#E6E6E6"/>
<path d="M493.855 187.607H470.531V210.959H493.855V187.607Z" fill="#E6E6E6"/>
<path d="M531.756 237.743H500.361V240.662H531.756V237.743Z" fill="#E6E6E6"/>
<path d="M555.08 247.841H500.361V250.76H555.08V247.841Z" fill="#E6E6E6"/>
<path d="M555.026 257.939H500.361V260.858H555.026V257.939Z" fill="#E6E6E6"/>
<path d="M493.855 237.786H470.531V261.138H493.855V237.786Z" fill="#E6E6E6"/>
<path d="M209.919 78.5411H77.7241V319.982H209.919V78.5411Z" fill="#E6E6E6"/>
<path d="M90.0719 307.619H197.571V90.904H90.0719V307.619Z" fill="white"/>
<path d="M162.772 137.385H131.377V140.304H162.772V137.385Z" fill="#E6E6E6"/>
<path d="M186.096 147.483H131.377V150.402H186.096V147.483Z" fill="#E6E6E6"/>
<path d="M186.042 157.581H131.377V160.5H186.042V157.581Z" fill="#E6E6E6"/>
<path d="M124.871 137.428H101.547V160.78H124.871V137.428Z" fill="#E6E6E6"/>
<path d="M162.772 187.564H131.377V190.483H162.772V187.564Z" fill="#E6E6E6"/>
<path d="M186.096 197.662H131.377V200.581H186.096V197.662Z" fill="#E6E6E6"/>
<path d="M186.042 207.76H131.377V210.679H186.042V207.76Z" fill="#E6E6E6"/>
<path d="M124.871 187.607H101.547V210.959H124.871V187.607Z" fill="#E6E6E6"/>
<path d="M162.772 237.743H131.377V240.662H162.772V237.743Z" fill="#E6E6E6"/>
<path d="M186.096 247.841H131.377V250.76H186.096V247.841Z" fill="#E6E6E6"/>
<path d="M186.042 257.939H131.377V260.858H186.042V257.939Z" fill="#E6E6E6"/>
<path d="M124.871 237.786H101.547V261.138H124.871V237.786Z" fill="#E6E6E6"/>
<path d="M322.5 339.617C500.612 339.617 645 333.757 645 326.527C645 319.298 500.612 313.437 322.5 313.437C144.388 313.437 0 319.298 0 326.527C0 333.757 144.388 339.617 322.5 339.617Z" fill="#E6E6E6"/>
<path d="M418.302 0H238.325V328.709H418.302V0Z" fill="#3F3D56"/>
<path d="M246.103 320.346H410.524V8.36316H246.103V320.346Z" fill="white"/>
<path d="M354.114 80.1125H311.371V84.0866H354.114V80.1125Z" fill="#0E8146"/>
<path d="M385.868 93.8602H311.371V97.8343H385.868V93.8602Z" fill="#E6E6E6"/>
<path d="M385.795 107.608H311.371V111.582H385.795V107.608Z" fill="#E6E6E6"/>
<path d="M302.513 80.1715H270.759V111.964H302.513V80.1715Z" fill="#0E8146"/>
<path d="M354.114 148.428H311.371V152.403H354.114V148.428Z" fill="#0E8146"/>
<path d="M385.868 162.176H311.371V166.15H385.868V162.176Z" fill="#E6E6E6"/>
<path d="M385.795 175.924H311.371V179.898H385.795V175.924Z" fill="#E6E6E6"/>
<path d="M302.513 148.488H270.759V180.28H302.513V148.488Z" fill="#0E8146"/>
<path d="M354.114 216.745H311.371V220.719H354.114V216.745Z" fill="#0E8146"/>
<path d="M385.868 230.492H311.371V234.466H385.868V230.492Z" fill="#E6E6E6"/>
<path d="M385.795 244.24H311.371V248.214H385.795V244.24Z" fill="#E6E6E6"/>
<path d="M302.513 216.803H270.759V248.596H302.513V216.803Z" fill="#0E8146"/>
<path d="M262.579 233.078L260.4 242.532C260.4 242.532 261.126 264.349 255.316 262.167C249.505 259.985 250.958 241.077 250.958 241.077L256.042 231.623L262.579 233.078Z" fill="#FFB8B8"/>
<path d="M230.257 129.447C238.28 129.447 244.784 122.935 244.784 114.903C244.784 106.87 238.28 100.358 230.257 100.358C222.234 100.358 215.73 106.87 215.73 114.903C215.73 122.935 222.234 129.447 230.257 129.447Z" fill="#FFB8B8"/>
<path d="M218.998 118.902L217.546 139.992L235.704 142.174C235.704 142.174 235.704 124.72 237.157 122.539C238.61 120.357 218.998 118.902 218.998 118.902Z" fill="#FFB8B8"/>
<path d="M259.311 146.174L235.79 136.201C235.79 136.201 224.554 127.52 217.963 133.938L215.003 138.174C215.003 138.174 188.855 148.355 188.855 156.355L199.024 196.353C199.024 196.353 193.213 218.897 201.929 220.351L249.142 224.715C249.142 224.715 255.679 216.715 249.868 206.534L252.047 182.535L259.311 146.174Z" fill="#54C981"/>
<path d="M243.331 146.901L259.311 146.174C259.311 146.174 264.395 147.628 268.027 161.446C271.658 175.263 272.385 197.807 272.385 197.807L263.669 238.532L252.773 237.078L257.132 197.807L249.868 171.627L243.331 146.901Z" fill="#54C981"/>
<path d="M197.571 151.264L189.693 153.721C189.693 153.721 183.044 163.627 183.044 168.718C183.044 173.808 180.139 212.352 180.139 212.352L199.024 243.623L204.835 228.351L193.213 208.716L202.656 184.717L197.571 151.264Z" fill="#54C981"/>
<path d="M251.321 223.26L199.099 218.66C199.099 218.66 193.939 251.622 194.666 264.712C195.392 277.803 196.118 298.165 196.118 298.165L190.308 386.887L212.824 383.979L215.73 310.528L225.172 270.53L236.068 321.437L243.331 386.887L262.942 384.706L256.405 305.437C256.405 305.437 262.216 234.169 251.321 223.26Z" fill="#2F2E41"/>
<path d="M258.584 381.07L265.121 383.251C265.121 383.251 278.922 379.615 275.29 389.069C271.658 398.523 261.49 397.069 261.49 397.069C261.49 397.069 249.142 406.523 244.057 399.25L246.963 383.979L258.584 381.07Z" fill="#2F2E41"/>
<path d="M205.561 381.07L212.098 383.251C212.098 383.251 225.899 379.615 222.267 389.069C218.635 398.523 208.466 397.069 208.466 397.069C208.466 397.069 196.118 406.523 191.034 399.25L193.939 383.979L205.561 381.07Z" fill="#2F2E41"/>
<path d="M218.998 127.629C218.998 127.629 203.745 116.721 211.735 103.631C217.278 94.5493 228.763 95.2682 235.279 96.5602C237.034 96.8846 238.684 97.6315 240.087 98.7366C241.49 99.8416 242.603 101.272 243.331 102.903C244.42 105.449 244.42 107.994 240.062 107.994C231.346 107.994 235.704 114.539 235.704 114.539C235.704 114.539 229.894 115.994 231.346 121.084C232.799 126.175 218.998 127.629 218.998 127.629Z" fill="#2F2E41"/>
</svg>
